<svg width="67" height="67" viewBox="0 0 67 67" fill="none" xmlns="http://www.w3.org/2000/svg">
<path d="M0 0H67V67H0V0Z" fill="#FFB83D"/>
<path d="M43.0176 19.9526C42.5335 22.2928 39.8676 27.553 38.2338 30.8806C37.381 32.6175 36.4303 34.14 35.5413 35.8703C37.5072 35.357 43.0176 35.1621 45.0041 35.1621C46.3285 35.1621 49.7418 37.305 49.2377 37.5774C43.5412 36.7927 35.0427 38.3113 34.4095 38.473C33.7474 38.473 33.3387 39.3755 33.0852 39.7973C29.9995 44.9311 27.0398 48.851 22.4292 52.8683C19.7402 55.2114 16.8727 57.3151 13.3687 58.5007C11.6323 59.0882 9.8859 59.2252 8.13486 58.5408C5.73949 57.6045 4.79939 55.7877 5.50132 53.4228C6.07402 51.4933 7.22488 49.8688 8.56112 48.3457C15.9715 41.2936 21.9761 38.3737 31.1336 36.5093C34.1041 31.3258 37.8202 25.4848 39.9717 19.9526C40.9205 17.5131 43.4211 16.16 43.0176 19.9526ZM25.0158 45.6647C26.5462 43.5979 28.0403 41.5101 29.3722 39.1554C28.8845 39.2775 28.5578 39.3483 28.2384 39.4413C26.8956 39.8324 25.603 40.3449 24.338 40.9165C18.7323 43.4495 14.0464 46.9918 10.701 51.9904C10.0848 52.9111 9.53913 53.8704 9.32902 54.9595C9.12593 56.0122 9.79502 56.6693 10.9202 56.513C11.3207 56.4573 11.7221 56.3703 12.1055 56.2484C13.991 55.6491 15.6692 54.6821 17.2633 53.5855C20.373 51.4463 22.8327 48.7361 25.0158 45.6647Z" fill="#1D1C18"/>
<path d="M41.4087 14.5452C42.1206 15.8033 44.2704 15.5696 45.7511 13.1835C47.542 10.2977 44.8188 8.9608 42.3373 10.9388C41.0966 12.0406 40.6381 13.1835 41.4087 14.5452Z" fill="#1D1C18"/>
<path d="M53.6117 28.5405C56.2604 25.2297 60.4776 18.1992 57.5573 19.4431C52.4136 21.2487 47.4932 27.2162 45.0036 31.8514C44.3414 33.1757 45.2699 33.9916 46.0257 34.2314C47.4352 34.6788 48.892 34.9288 50.3334 35.2397C51.8965 35.5768 53.4194 36.0094 54.7674 36.9252C56.7798 38.2925 57.4736 40.2031 56.789 42.5701C56.1203 44.8823 54.7779 46.804 53.237 48.5727C49.8987 52.4046 45.934 55.3378 41.1157 56.9695C38.7142 57.7828 36.2828 57.9473 33.8254 57.1797C30.9792 56.2906 29.7997 53.9784 30.7706 51.133C31.2159 49.8279 31.9572 48.7004 32.8331 47.6576C34.6188 45.5316 37.7198 42.0103 39.0869 42.3766C40.4541 42.7429 35.32 48.4007 34.722 49.6182C34.2476 50.5841 33.8486 51.6112 34.1464 52.7418C34.3983 53.6981 35.0595 54.1146 36.0367 53.9964C39.676 53.5559 42.7482 51.8022 45.6285 49.6559C47.9608 47.918 50.0989 45.9566 51.7805 43.5314C52.3076 42.7712 52.7281 41.9599 53.0057 41.0723C53.4532 39.6415 53.0767 38.8402 51.6814 38.3068C50.2287 37.7514 48.6927 37.5511 47.1822 37.2456C45.8238 36.9708 44.4657 36.6986 43.1868 36.134C38.8576 34.2227 42.4442 28.9227 44.5005 26.635C47.3603 23.4535 50.549 20.651 54.1723 18.3887C55.1592 17.7726 56.2028 17.2587 57.2942 16.8548C64.2063 14.6351 59.5712 23.416 58.2468 25.8919C56.9225 28.5405 51.6252 31.8514 53.6117 28.5405Z" fill="#1D1C18"/>
</svg>
