<svg width="43" height="37" viewBox="0 0 43 37" fill="auto" xmlns="http://www.w3.org/2000/svg">
<path d="M28.5 7.51528C28.1344 9.28235 26.1214 13.2543 24.8877 15.767C24.2438 17.0786 23.5259 18.2282 22.8546 19.5347C24.339 19.1471 28.5 19 30 19C31 19 33.5774 20.618 33.1968 20.8238C28.8953 20.2312 22.4781 21.3779 22 21.5C21.5 21.5 21.1914 22.1815 21 22.5C18.67 26.3765 16.4351 29.3365 12.9536 32.37C10.9232 34.1392 8.7579 35.7278 6.11203 36.623C4.80084 37.0666 3.48214 37.1701 2.15993 36.6533C0.351178 35.9463 -0.358695 34.5744 0.171334 32.7887C0.603782 31.3317 1.4728 30.1051 2.4818 28.9549C8.07739 23.6299 12.6115 21.4251 19.5263 20.0172C21.7694 16.1031 24.5754 11.6926 26.2 7.51527C26.9164 5.67315 28.8047 4.65141 28.5 7.51528ZM14.9068 26.9305C16.0624 25.3698 17.1906 23.7933 18.1963 22.0153C17.828 22.1075 17.5813 22.1609 17.3401 22.2312C16.3262 22.5266 15.3501 22.9135 14.395 23.3451C10.1621 25.2578 6.62372 27.9326 4.09764 31.707C3.63234 32.4023 3.22029 33.1267 3.06164 33.949C2.90829 34.7439 3.41352 35.2401 4.26314 35.1221C4.56558 35.08 4.86868 35.0143 5.15817 34.9223C6.58193 34.4697 7.84913 33.7396 9.05287 32.9115C11.401 31.2962 13.2583 29.2497 14.9068 26.9305Z" />
<path d="M27.285 3.43207C27.8226 4.38209 29.4459 4.20563 30.564 2.40385C31.9163 0.22478 29.86 -0.784702 27.9862 0.708879C27.0494 1.54084 26.7031 2.40385 27.285 3.43207Z" />
<path d="M36.5 14C38.5 11.5 41.6845 6.19124 39.4793 7.13047C35.5953 8.49391 31.8799 13 30 16.5C29.5 17.5 30.2011 18.1161 30.7718 18.2972C31.8361 18.635 32.9361 18.8238 34.0245 19.0585C35.2049 19.3131 36.3548 19.6397 37.3726 20.3313C38.8922 21.3637 39.4161 22.8064 38.8992 24.5937C38.3942 26.3397 37.3806 27.7907 36.2171 29.1263C33.6963 32.0198 30.7026 34.2347 27.0642 35.4668C25.2508 36.0809 23.4149 36.2051 21.5593 35.6255C19.4102 34.9541 18.5195 33.2082 19.2526 31.0596C19.5889 30.0741 20.1486 29.2228 20.8101 28.4353C22.1584 26.83 24.5 24.171 25.5323 24.4476C26.5646 24.7242 22.6879 28.9965 22.2364 29.9158C21.8781 30.6452 21.5769 31.4207 21.8017 32.2744C21.9919 32.9965 22.4912 33.3111 23.2291 33.2218C25.9771 32.8892 28.2969 31.5649 30.4718 29.9443C32.233 28.632 33.8475 27.1509 35.1172 25.3196C35.5152 24.7456 35.8328 24.133 36.0424 23.4628C36.3803 22.3823 36.096 21.7773 35.0424 21.3745C33.9455 20.9552 32.7856 20.8039 31.6451 20.5732C30.6193 20.3657 29.5938 20.1601 28.6281 19.7338C25.3592 18.2906 28.0674 14.2885 29.6201 12.5611C31.7795 10.1588 34.1874 8.04259 36.9233 6.33435C37.6685 5.86911 38.4565 5.48104 39.2807 5.17604C44.5 3.5 41 10.1305 40 12C39 14 35 16.5 36.5 14Z" />
</svg>
